HIERARCHY
ROOT Hips
{
  OFFSET -283.505 93.2753 1615.99
  CHANNELS 6 Xposition Yposition Zposition Zrotation Xrotation Yrotation
  JOINT Spine
  {
    OFFSET 0 8 0
    CHANNELS 6 Xposition Yposition Zposition Zrotation Xrotation Yrotation
    JOINT Spine1
    {
      OFFSET 0 8 0
      CHANNELS 6 Xposition Yposition Zposition Zrotation Xrotation Yrotation
      JOINT Spine2
      {
        OFFSET 0 8 0
        CHANNELS 6 Xposition Yposition Zposition Zrotation Xrotation Yrotation
        JOINT Spine3
        {
          OFFSET 0 8 0
          CHANNELS 6 Xposition Yposition Zposition Zrotation Xrotation Yrotation
          JOINT Neck
          {
            OFFSET 0 17 0
            CHANNELS 6 Xposition Yposition Zposition Zrotation Xrotation Yrotation
            JOINT Head
            {
              OFFSET 0 10.8 0
              CHANNELS 6 Xposition Yposition Zposition Zrotation Xrotation Yrotation
              End Site
              {
                OFFSET 0 20.25 0
              }
            }
          }
          JOINT LeftShoulder
          {
            OFFSET 5 17 0
            CHANNELS 6 Xposition Yposition Zposition Zrotation Xrotation Yrotation
            JOINT LeftShoulder2
            {
              OFFSET 6.45 0 0
              CHANNELS 6 Xposition Yposition Zposition Zrotation Xrotation Yrotation
              JOINT LeftArm
              {
                OFFSET 6.45 0 0
                CHANNELS 6 Xposition Yposition Zposition Zrotation Xrotation Yrotation
                JOINT LeftForeArm
                {
                  OFFSET 0 -32.4 -2
                  CHANNELS 6 Xposition Yposition Zposition Zrotation Xrotation Yrotation
                  JOINT LeftHand
                  {
                    OFFSET 0 -25.65 2
                    CHANNELS 6 Xposition Yposition Zposition Zrotation Xrotation Yrotation
                    JOINT LeftHandThumb1
                    {
                      OFFSET -0.5 -1.5 2.65
                      CHANNELS 6 Xposition Yposition Zposition Zrotation Xrotation Yrotation
                      JOINT LeftHandThumb2
                      {
                        OFFSET 0 -3.8 3.7
                        CHANNELS 6 Xposition Yposition Zposition Zrotation Xrotation Yrotation
                        JOINT LeftHandThumb3
                        {
                          OFFSET 0 -3 2.7
                          CHANNELS 6 Xposition Yposition Zposition Zrotation Xrotation Yrotation
                          End Site
                          {
                            OFFSET 0 -2.3 1.8
                          }
                        }
                      }
                    }
                    JOINT LeftHandIndex
                    {
                      OFFSET 0 -1.9 1.6
                      CHANNELS 6 Xposition Yposition Zposition Zrotation Xrotation Yrotation
                      JOINT LeftHandIndex1
                      {
                        OFFSET 0 -8.3 1.9
                        CHANNELS 6 Xposition Yposition Zposition Zrotation Xrotation Yrotation
                        JOINT LeftHandIndex2
                        {
                          OFFSET 0 -4.5 0
                          CHANNELS 6 Xposition Yposition Zposition Zrotation Xrotation Yrotation
                          JOINT LeftHandIndex3
                          {
                            OFFSET 0 -3.4 0
                            CHANNELS 6 Xposition Yposition Zposition Zrotation Xrotation Yrotation
                            End Site
                            {
                              OFFSET 0 -2.6 0
                            }
                          }
                        }
                      }
                    }
                    JOINT LeftHandMiddle
                    {
                      OFFSET -0.25 -2.2 0.4
                      CHANNELS 6 Xposition Yposition Zposition Zrotation Xrotation Yrotation
                      JOINT LeftHandMiddle1
                      {
                        OFFSET 0 -8.3 1
                        CHANNELS 6 Xposition Yposition Zposition Zrotation Xrotation Yrotation
                        JOINT LeftHandMiddle2
                        {
                          OFFSET 0 -4.65 0
                          CHANNELS 6 Xposition Yposition Zposition Zrotation Xrotation Yrotation
                          JOINT LeftHandMiddle3
                          {
                            OFFSET 0 -3.3 0
                            CHANNELS 6 Xposition Yposition Zposition Zrotation Xrotation Yrotation
                            End Site
                            {
                              OFFSET 0 -2.7 0
                            }
                          }
                        }
                      }
                    }
                    JOINT LeftHandRing
                    {
                      OFFSET -0.5 -2.15 -0.8
                      CHANNELS 6 Xposition Yposition Zposition Zrotation Xrotation Yrotation
                      JOINT LeftHandRing1
                      {
                        OFFSET 0 -7.75 -0.2
                        CHANNELS 6 Xposition Yposition Zposition Zrotation Xrotation Yrotation
                        JOINT LeftHandRing2
                        {
                          OFFSET 0 -3.8 0
                          CHANNELS 6 Xposition Yposition Zposition Zrotation Xrotation Yrotation
                          JOINT LeftHandRing3
                          {
                            OFFSET 0 -3.4 0
                            CHANNELS 6 Xposition Yposition Zposition Zrotation Xrotation Yrotation
                            End Site
                            {
                              OFFSET 0 -2.6 0
                            }
                          }
                        }
                      }
                    }
                    JOINT LeftHandPinky
                    {
                      OFFSET -0.75 -1.75 -1.85
                      CHANNELS 6 Xposition Yposition Zposition Zrotation Xrotation Yrotation
                      JOINT LeftHandPinky1
                      {
                        OFFSET 0 -7.15 -1
                        CHANNELS 6 Xposition Yposition Zposition Zrotation Xrotation Yrotation
                        JOINT LeftHandPinky2
                        {
                          OFFSET 0 -3 0
                          CHANNELS 6 Xposition Yposition Zposition Zrotation Xrotation Yrotation
                          JOINT LeftHandPinky3
                          {
                            OFFSET 0 -2.35 0
                            CHANNELS 6 Xposition Yposition Zposition Zrotation Xrotation Yrotation
                            End Site
                            {
                              OFFSET 0 -2.1 0
                            }
                          }
                        }
                      }
                    }
                  }
                }
              }
            }
          }
          JOINT RightShoulder
          {
            OFFSET -5 17 0
            CHANNELS 6 Xposition Yposition Zposition Zrotation Xrotation Yrotation
            JOINT RightShoulder2
            {
              OFFSET -6.45 0 0
              CHANNELS 6 Xposition Yposition Zposition Zrotation Xrotation Yrotation
              JOINT RightArm
              {
                OFFSET -6.45 0 0
                CHANNELS 6 Xposition Yposition Zposition Zrotation Xrotation Yrotation
                JOINT RightForeArm
                {
                  OFFSET 0 -32.4 -2
                  CHANNELS 6 Xposition Yposition Zposition Zrotation Xrotation Yrotation
                  JOINT RightHand
                  {
                    OFFSET 0 -25.65 2
                    CHANNELS 6 Xposition Yposition Zposition Zrotation Xrotation Yrotation
                    JOINT RightHandThumb1
                    {
                      OFFSET 0.5 -1.5 2.65
                      CHANNELS 6 Xposition Yposition Zposition Zrotation Xrotation Yrotation
                      JOINT RightHandThumb2
                      {
                        OFFSET 0 -3.8 3.7
                        CHANNELS 6 Xposition Yposition Zposition Zrotation Xrotation Yrotation
                        JOINT RightHandThumb3
                        {
                          OFFSET 0 -3 2.7
                          CHANNELS 6 Xposition Yposition Zposition Zrotation Xrotation Yrotation
                          End Site
                          {
                            OFFSET 0 -2.3 1.8
                          }
                        }
                      }
                    }
                    JOINT RightHandIndex
                    {
                      OFFSET 0 -1.9 1.6
                      CHANNELS 6 Xposition Yposition Zposition Zrotation Xrotation Yrotation
                      JOINT RightHandIndex1
                      {
                        OFFSET 0 -8.3 1.9
                        CHANNELS 6 Xposition Yposition Zposition Zrotation Xrotation Yrotation
                        JOINT RightHandIndex2
                        {
                          OFFSET 0 -4.5 0
                          CHANNELS 6 Xposition Yposition Zposition Zrotation Xrotation Yrotation
                          JOINT RightHandIndex3
                          {
                            OFFSET 0 -3.4 0
                            CHANNELS 6 Xposition Yposition Zposition Zrotation Xrotation Yrotation
                            End Site
                            {
                              OFFSET 0 -2.6 0
                            }
                          }
                        }
                      }
                    }
                    JOINT RightHandMiddle
                    {
                      OFFSET 0.25 -2.2 0.4
                      CHANNELS 6 Xposition Yposition Zposition Zrotation Xrotation Yrotation
                      JOINT RightHandMiddle1
                      {
                        OFFSET 0 -8.3 1
                        CHANNELS 6 Xposition Yposition Zposition Zrotation Xrotation Yrotation
                        JOINT RightHandMiddle2
                        {
                          OFFSET 0 -4.65 0
                          CHANNELS 6 Xposition Yposition Zposition Zrotation Xrotation Yrotation
                          JOINT RightHandMiddle3
                          {
                            OFFSET 0 -3.3 0
                            CHANNELS 6 Xposition Yposition Zposition Zrotation Xrotation Yrotation
                            End Site
                            {
                              OFFSET 0 -2.7 0
                            }
                          }
                        }
                      }
                    }
                    JOINT RightHandRing
                    {
                      OFFSET 0.5 -2.15 -0.8
                      CHANNELS 6 Xposition Yposition Zposition Zrotation Xrotation Yrotation
                      JOINT RightHandRing1
                      {
                        OFFSET 0 -7.75 -0.2
                        CHANNELS 6 Xposition Yposition Zposition Zrotation Xrotation Yrotation
                        JOINT RightHandRing2
                        {
                          OFFSET 0 -3.8 0
                          CHANNELS 6 Xposition Yposition Zposition Zrotation Xrotation Yrotation
                          JOINT RightHandRing3
                          {
                            OFFSET 0 -3.4 0
                            CHANNELS 6 Xposition Yposition Zposition Zrotation Xrotation Yrotation
                            End Site
                            {
                              OFFSET 0 -2.6 0
                            }
                          }
                        }
                      }
                    }
                    JOINT RightHandPinky
                    {
                      OFFSET 0.75 -1.75 -1.85
                      CHANNELS 6 Xposition Yposition Zposition Zrotation Xrotation Yrotation
                      JOINT RightHandPinky1
                      {
                        OFFSET 0 -7.15 -1
                        CHANNELS 6 Xposition Yposition Zposition Zrotation Xrotation Yrotation
                        JOINT RightHandPinky2
                        {
                          OFFSET 0 -3 0
                          CHANNELS 6 Xposition Yposition Zposition Zrotation Xrotation Yrotation
                          JOINT RightHandPinky3
                          {
                            OFFSET 0 -2.35 0
                            CHANNELS 6 Xposition Yposition Zposition Zrotation Xrotation Yrotation
                            End Site
                            {
                              OFFSET 0 -2.1 0
                            }
                          }
                        }
                      }
                    }
                  }
                }
              }
            }
          }
        }
      }
    }
  }
  JOINT LeftUpLeg
  {
    OFFSET 8 0 0
    CHANNELS 6 Xposition Yposition Zposition Zrotation Xrotation Yrotation
    JOINT LeftLeg
    {
      OFFSET 0 -45 -1
      CHANNELS 6 Xposition Yposition Zposition Zrotation Xrotation Yrotation
      JOINT LeftFoot
      {
        OFFSET 0 -41 -2
        CHANNELS 6 Xposition Yposition Zposition Zrotation Xrotation Yrotation
        JOINT LeftToeBase
        {
          OFFSET 0 -7.5 12.5
          CHANNELS 6 Xposition Yposition Zposition Zrotation Xrotation Yrotation
          JOINT LeftFootToe
          {
            OFFSET 0 0 4
            CHANNELS 6 Xposition Yposition Zposition Zrotation Xrotation Yrotation
            End Site
            {
              OFFSET 0 0 0
            }
          }
        }
      }
    }
  }
  JOINT RightUpLeg
  {
    OFFSET -8 0 0
    CHANNELS 6 Xposition Yposition Zposition Zrotation Xrotation Yrotation
    JOINT RightLeg
    {
      OFFSET 0 -45 -1
      CHANNELS 6 Xposition Yposition Zposition Zrotation Xrotation Yrotation
      JOINT RightFoot
      {
        OFFSET 0 -41 -2
        CHANNELS 6 Xposition Yposition Zposition Zrotation Xrotation Yrotation
        JOINT RightToeBase
        {
          OFFSET 0 -7.5 12.5
          CHANNELS 6 Xposition Yposition Zposition Zrotation Xrotation Yrotation
          JOINT RightFootToe
          {
            OFFSET 0 0 4
            CHANNELS 6 Xposition Yposition Zposition Zrotation Xrotation Yrotation
            End Site
            {
              OFFSET 0 0 0
            }
          }
        }
      }
    }
  }
}
MOTION
Frames:	3
Frame Time:	0.0111111
-276.703 89.9877 1634.25 -2.82933 0.767082 147.87 -1.13687e-13 8 0 15.6091 15.7953 -16.781 -2.27374e-13 8 0 -0.434586 8.99695 3.3115 0 8 0 -0.15177 4.50948 1.64486 -1.13687e-13 8 0 -0.151009 4.4937 1.639 1.13687e-13 17 4.54747e-13 -0.650118 1.07503 -5.0483 -2.27374e-13 10.8 0 -1.36707 2.59298 -11.7827 5 17 2.27374e-13 -8.56494 -3.06338 1.60127 6.45 0 -2.27374e-13 -0.986235 0.346227 3.79451 6.45 0 4.54747e-13 4.63139 11.0585 35.5325 5.68434e-14 -32.4 -2 -59.5457 -64.9657 -120.845 0 -25.65 2 28.3543 -26.4356 -23.9424 -0.5 -1.5 2.65 -43.1165 -62.6741 112.821 0 -3.8 3.7 -0.090313 7.79106 -0.00347304 0 -3 2.7 -0.12638 40.6982 -0.0729608 1.13687e-13 -1.9 1.6 2.64834e-31 -6.36111e-15 2.38542e-15 -5.68434e-14 -8.3 1.9 -29.1526 13.801 4.15564 0 -4.5 1.13687e-13 -80.5738 0.0144706 -0.00326128 0 -3.4 -5.68434e-14 -66.969 0.00689534 0.00438964 -0.25 -2.2 0.4 2.64834e-31 -6.36111e-15 2.38542e-15 1.42109e-13 -8.3 1 -35.8694 10.3894 4.92385 0 -4.65 1.7053e-13 -83.4842 -0.000429119 -0.0022198 2.27374e-13 -3.3 0 -90.0002 3.18055e-15 1.27222e-14 -0.5 -2.15 -0.8 2.64834e-31 -6.36111e-15 2.38542e-15 0 -7.75 -0.2 -78.3781 -3.34136 10.7173 0 -3.8 -5.68434e-14 -20.4439 -0.0187083 0.0236348 2.27374e-13 -3.4 0 -90.0002 -0.00474548 -0.000274658 -0.75 -1.75 -1.85 2.64834e-31 -6.36111e-15 2.38542e-15 -1.13687e-13 -7.15 -1 -72.1912 7.98509 12.8709 -2.27374e-13 -3 -5.68434e-14 -77.8616 -0.0018911 -0.00103072 0 -2.35 5.68434e-14 -90.0002 2.14687e-14 0.000549316 -5 17 0 2.30461 -2.19802 -1.43711 -6.45 1.13687e-13 -2.27374e-13 -1.69397 -0.845491 -3.66936 -6.45 5.68434e-14 0 -66.5435 -31.9426 24.2437 -2.27374e-13 -32.4 -2 3.62705 -23.8829 -19.6174 0 -25.65 2 -4.9018 -8.41379 22.2188 0.5 -1.5 2.65 24.1538 29.0108 -2.03954 0 -3.8 3.7 2.64973 -19.9891 -0.628543 -1.13687e-13 -3 2.7 0.294068 37.6712 -0.419742 2.27374e-13 -1.9 1.6 -9.54166e-15 0 3.18055e-15 -2.27374e-13 -8.3 1.9 0.482032 1.56583 0.102273 0 -4.5 0 29.2672 0.30931 -0.00859352 -1.13687e-13 -3.4 0 21.5658 0.177321 -0.0756106 0.25 -2.2 0.4 -9.54166e-15 0 3.18055e-15 0 -8.3 1 7.28151 4.7408 -0.526755 0 -4.65 4.54747e-13 78.584 -0.0316564 0.0661533 0 -3.3 2.27374e-13 63.9175 0.0663887 0.0885457 0.5 -2.15 -0.8 -9.54166e-15 0 3.18055e-15 1.13687e-13 -7.75 -0.2 21.6558 11.4119 -3.20322 0 -3.8 2.27374e-13 52.5672 0.233001 0.311222 0 -3.4 -2.27374e-13 36.7748 0.292065 0.0784364 0.75 -1.75 -1.85 -9.54166e-15 0 3.18055e-15 -1.13687e-13 -7.15 -1 28.2456 11.0917 -4.1451 -1.13687e-13 -3 2.27374e-13 68.84 0.0708057 0.0228988 -2.84217e-14 -2.35 -2.27374e-13 50.7733 0.0561053 -0.0356849 8 -2.84217e-14 -2.27374e-13 -7.43559 -21.5065 -19.3567 2.27374e-13 -45 -1 -1.1292 31.4655 4.75648 0 -41 -2 -2.45672 -9.4917 19.7723 0 -7.5 12.5 -1.49089e-16 -9.93923e-17 3.18055e-15 5.68434e-14 0 4 1.72959 4.57995 26.0202 -8 -2.84217e-14 0 -15.1991 -21.0902 -11.9318 -2.27374e-13 -45 -1 -0.0101398 14.2398 -0.476513 0 -41 -2 8.08179 7.97685 24.085 -5.68434e-14 -7.5 12.5 -3.63986e-20 -4.85314e-20 3.18055e-15 5.68434e-14 4.33681e-19 4 -3.42246 -2.2986 68.5772 
-276.939 90.0264 1633.77 -3.01797 0.956168 147.339 1.13687e-13 8 2.27374e-13 15.0715 15.8016 -16.7341 -3.41061e-13 8 -2.27374e-13 -0.456615 8.91451 3.32675 -2.27374e-13 8 -2.27374e-13 -0.163095 4.46825 1.65218 1.13687e-13 8 -2.27374e-13 -0.16231 4.45282 1.64639 2.27374e-13 17 0 -0.612826 1.14036 -4.99588 -3.41061e-13 10.8 0 -1.27303 2.7395 -11.6604 5 17 2.27374e-13 -8.56494 -3.06338 1.60127 6.45 1.13687e-13 0 -0.986235 0.346227 3.79451 6.45 0 2.27374e-13 4.63139 11.0585 35.5325 2.84217e-14 -32.4 -2 -57.2376 -64.631 -118.989 0 -25.65 2 27.5202 -25.715 -24.0616 -0.5 -1.5 2.65 -40.8345 -62.5352 114.583 0 -3.8 3.7 -0.0503378 8.23575 -0.00347683 0 -3 2.7 -0.0533871 42.9989 -0.0549223 1.7053e-13 -1.9 1.6 1.59028e-15 3.18055e-15 -0 -1.13687e-13 -8.3 1.9 -29.7743 14.1086 4.35002 -1.13687e-13 -4.5 1.13687e-13 -80.5418 0.0144706 -0.00326128 0 -3.4 0 -66.9105 0.00689534 0.00438964 -0.25 -2.2 0.4 1.59028e-15 3.18055e-15 -0 1.13687e-13 -8.3 1 -36.6385 10.6646 5.1035 0 -4.65 1.13687e-13 -83.2184 -0.000429119 -0.0022198 2.27374e-13 -3.3 0 -90.0002 2.54444e-14 -2.06736e-14 -0.5 -2.15 -0.8 1.59028e-15 3.18055e-15 -0 0 -7.75 -0.2 -79.3547 -3.11498 10.8748 0 -3.8 0 -21.3313 -0.0116272 0.0124336 4.54747e-13 -3.4 0 -90.0002 -0.00474548 -0.000274658 -0.75 -1.75 -1.85 1.59028e-15 3.18055e-15 -0 -1.13687e-13 -7.15 -1 -73.2617 7.53659 12.9021 0 -3 5.68434e-14 -77.999 -0.0018911 -0.00103072 0 -2.35 5.68434e-14 -90.0002 1.82882e-14 0.000549316 -5 17 0 2.37956 -2.20074 -1.65268 -6.45 0 0 -1.67297 -0.871117 -3.62765 -6.45 5.68434e-14 -2.27374e-13 -66.5848 -31.3249 23.3418 -1.13687e-13 -32.4 -2 2.71922 -26.4602 -20.345 1.42109e-14 -25.65 2 -2.67494 -7.11247 22.3799 0.5 -1.5 2.65 23.5329 27.9118 -2.22556 -1.13687e-13 -3.8 3.7 2.61491 -20.4016 -0.607921 0 -3 2.7 0.179064 34.4462 -0.411157 2.27374e-13 -1.9 1.6 -4.77083e-15 4.77083e-15 -0 -1.13687e-13 -8.3 1.9 0.552739 3.43538 0.0800406 1.13687e-13 -4.5 0 26.4716 0.321468 -0.0415568 -1.13687e-13 -3.4 2.27374e-13 19.8348 0.18092 -0.0938214 0.25 -2.2 0.4 -4.77083e-15 4.77083e-15 -0 0 -8.3 1 7.97187 5.79479 -0.637577 -1.13687e-13 -4.65 2.27374e-13 79.5655 -0.012441 0.0216513 0 -3.3 0 65.3095 0.0209669 0.0327826 0.5 -2.15 -0.8 -4.77083e-15 4.77083e-15 -0 1.13687e-13 -7.75 -0.2 23.0051 10.4692 -3.15816 1.13687e-13 -3.8 -2.27374e-13 55.1387 0.279384 0.375573 -5.68434e-14 -3.4 0 38.8017 0.362581 0.0907512 0.75 -1.75 -1.85 -4.77083e-15 4.77083e-15 -0 -1.13687e-13 -7.15 -1 29.6534 8.94033 -3.70804 -1.13687e-13 -3 2.27374e-13 69.5874 -0.0928921 -0.0533692 0 -2.35 -2.27374e-13 51.4701 -0.110934 0.0431109 8 0 0 -7.78199 -20.8051 -19.1833 -2.27374e-13 -45 -1 -1.06534 30.5715 4.6673 1.13687e-13 -41 -2 -2.02754 -9.45449 19.9424 0 -7.5 12.5 -9.93923e-17 -1.98785e-16 6.36111e-15 0 -3.55271e-15 4 1.49927 4.70334 25.9815 -8 -2.84217e-14 2.27374e-13 -15.5855 -20.8561 -11.8667 -2.27374e-13 -45 -1 0.00282449 13.9317 -0.694145 -1.13687e-13 -41 -2 8.23684 8.13363 23.9821 -1.13687e-13 -7.5 12.5 -6.52141e-20 -2.42657e-20 6.36111e-15 -5.68434e-14 -4.33681e-19 4 -3.43207 -2.82767 68.685 
-277.18 90.0697 1633.27 -3.16069 1.11703 146.814 1.13687e-13 8 0 14.5661 15.7996 -16.6529 -2.27374e-13 8 0 -0.480328 8.82433 3.35116 0 8 0 -0.175129 4.42315 1.66407 -1.13687e-13 8 0 -0.174329 4.40812 1.65834 2.27374e-13 17 2.27374e-13 -0.577887 1.21625 -4.96878 -1.13687e-13 10.8 0 -1.18229 2.91143 -11.5975 5 17 2.27374e-13 -8.56494 -3.06338 1.60127 6.45 1.13687e-13 0 -0.986235 0.346227 3.79451 6.45 0 4.54747e-13 4.63139 11.0585 35.5325 0 -32.4 -2 -54.879 -64.1927 -117.085 0 -25.65 2 26.9217 -25.0112 -23.9819 -0.5 -1.5 2.65 -39.471 -62.5723 115.561 -1.13687e-13 -3.8 3.7 -0.0260455 8.37446 -0.00347806 -5.68434e-14 -3 2.7 -0.0217738 44.4619 -0.0365772 5.68434e-14 -1.9 1.6 1.59028e-15 0 1.03368e-14 -5.68434e-14 -8.3 1.9 -30.3362 14.3832 4.53161 2.27374e-13 -4.5 -5.68434e-14 -80.4302 0.0144706 -0.00326128 0 -3.4 -5.68434e-14 -66.7031 0.00689534 0.00438964 -0.25 -2.2 0.4 1.59028e-15 0 1.03368e-14 1.13687e-13 -8.3 1 -37.3361 10.9138 5.27424 0 -4.65 5.68434e-14 -83.0074 -0.000429119 -0.0022198 2.27374e-13 -3.3 -5.68434e-14 -90.0002 3.18055e-15 -1.27222e-14 -0.5 -2.15 -0.8 1.59028e-15 0 1.03368e-14 -5.68434e-14 -7.75 -0.2 -80.2127 -2.87843 11.0356 0 -3.8 -5.68434e-14 -22.1013 -0.00422683 0.0044496 2.27374e-13 -3.4 -1.13687e-13 -90.0002 -0.00474548 -0.000274658 -0.75 -1.75 -1.85 1.59028e-15 0 1.03368e-14 -1.13687e-13 -7.15 -1 -74.213 7.13147 12.9263 2.27374e-13 -3 -5.68434e-14 -78.1485 -0.0018911 -0.00103072 0 -2.35 1.13687e-13 -90.0002 3.18055e-15 0.000549316 -5 17 0 2.46308 -2.22874 -1.92063 -6.45 5.68434e-14 0 -1.64755 -0.899601 -3.57492 -6.45 -5.68434e-14 -2.27374e-13 -66.469 -30.5818 22.5782 -1.13687e-13 -32.4 -2 1.83814 -29.2043 -21.1295 4.26326e-14 -25.65 2 -0.672143 -5.7098 22.3039 0.5 -1.5 2.65 22.4884 26.1792 -2.24554 1.13687e-13 -3.8 3.7 2.54589 -20.5736 -0.591598 0 -3 2.7 0.0207295 30.7525 -0.284782 1.13687e-13 -1.9 1.6 5.56597e-15 4.77083e-15 -6.36111e-15 -1.13687e-13 -8.3 1.9 0.699855 5.17375 0.0363289 0 -4.5 0 23.3146 0.332246 -0.0828661 -1.13687e-13 -3.4 0 17.8341 0.186268 -0.116422 0.25 -2.2 0.4 5.56597e-15 4.77083e-15 -6.36111e-15 0 -8.3 1 8.89905 6.69063 -0.790694 0 -4.65 2.27374e-13 80.3409 -0.00156874 0.00921712 0 -3.3 -2.27374e-13 66.57 0.0139034 0.00852079 0.5 -2.15 -0.8 5.56597e-15 4.77083e-15 -6.36111e-15 0 -7.75 -0.2 24.7295 9.44764 -3.15045 2.27374e-13 -3.8 0 57.4642 0.348981 0.458363 -5.68434e-14 -3.4 0 40.7668 0.458533 0.101397 0.75 -1.75 -1.85 5.56597e-15 4.77083e-15 -6.36111e-15 0 -7.15 -1 31.6728 6.68881 -3.28521 0 -3 2.27374e-13 69.1627 -0.161248 -0.0925707 0 -2.35 2.27374e-13 51.0252 -0.190832 0.0737132 8 0 -2.27374e-13 -8.06103 -20.0942 -18.9622 0 -45 -1 -0.997656 29.6668 4.54576 1.13687e-13 -41 -2 -1.59558 -9.41044 20.0419 5.68434e-14 -7.5 12.5 -9.93923e-17 -1.49089e-16 -3.18055e-15 -5.68434e-14 1.77636e-15 4 1.29469 4.82185 25.9634 -8 -2.84217e-14 2.27374e-13 -15.9272 -20.5663 -11.8677 -3.41061e-13 -45 -1 0.016496 13.5776 -0.89918 0 -41 -2 8.38713 8.2895 23.8099 0 -7.5 12.5 -2.42657e-20 -1.94126e-19 -0 -1.13687e-13 0 4 -3.43838 -3.32514 68.7998 
